<svg width="15" height="15" viewBox="0 0 15 15" fill="none" xmlns="http://www.w3.org/2000/svg">
<g clip-path="url(#clip0_4_4)">
<path d="M7.39269 3C6.62878 3 6.00582 3.393 5.58591 3.89C5.16601 4.389 4.92846 4.9875 4.92846 5.5V6.75C4.92846 7.0835 5.09307 7.326 5.21628 7.5135C5.33949 7.701 5.4213 7.8335 5.4213 8V8.5C5.4213 8.805 5.39075 9.087 5.05266 9.283L3.32769 10.283C2.93342 10.5115 2.7008 10.733 2.57955 10.991C2.4593 11.249 2.46423 11.501 2.46423 11.75C2.46423 12.085 2.95707 12.08 2.95707 11.75C2.95707 11.5 2.96102 11.341 3.02459 11.206C3.08768 11.071 3.22469 10.9185 3.57165 10.717L5.29661 9.717C5.82199 9.413 5.91415 8.867 5.91415 8.5V8C5.91415 7.6665 5.74954 7.424 5.62633 7.2365C5.50312 7.049 5.4213 6.9165 5.4213 6.75V5.5C5.4213 5.155 5.61204 4.6285 5.96048 4.216C6.30843 3.803 6.79339 3.5 7.39269 3.5C7.99149 3.5 8.47695 3.803 8.8249 4.216C9.17334 4.6285 9.36407 5.156 9.36407 5.5V6.75C9.36407 6.9165 9.28226 7.049 9.15905 7.2365C9.03583 7.424 8.87122 7.6665 8.87122 8V8.5C8.87122 8.8675 8.96388 9.413 9.48827 9.717L11.2132 10.717C11.5607 10.9185 11.6977 11.071 11.7603 11.206C11.8244 11.341 11.8283 11.4995 11.8283 11.75C11.8283 12.085 12.3211 12.086 12.3211 11.75C12.3211 11.5 12.3261 11.249 12.2058 10.991C12.0846 10.7335 11.851 10.511 11.4577 10.283L9.73272 9.283C9.39463 9.087 9.36407 8.805 9.36407 8.5V8C9.36407 7.8335 9.44588 7.701 9.56909 7.5135C9.69231 7.326 9.85692 7.0835 9.85692 6.75V5.5C9.85692 4.987 9.61936 4.3885 9.19946 3.89C8.77956 3.3935 8.1566 3 7.39269 3ZM7.39269 0C3.31291 0 0 3.361 0 7.5C0 11.639 3.31291 15 7.39269 15C11.4725 15 14.7854 11.639 14.7854 7.5C14.7854 3.361 11.4725 0 7.39269 0ZM7.39269 0.5C11.2063 0.5 14.2925 3.631 14.2925 7.5C14.2925 11.369 11.2063 14.5 7.39269 14.5C3.57905 14.5 0.492846 11.369 0.492846 7.5C0.492846 3.631 3.57905 0.5 7.39269 0.5Z" fill="#414042"/>
</g>
<defs>
<clipPath id="clip0_4_4">
<rect width="14.5882" height="14.8" fill="white" transform="scale(1.01351)"/>
</clipPath>
</defs>
</svg>
